<svg xmlns="http://www.w3.org/2000/svg" viewBox="0 0 1686.16 498.37"><defs><style>.cls-1{fill:none;}.cls-2{fill:#00a372;}.cls-3{fill:#6fc393;}.cls-4{fill:#ffdd15;}.cls-5{fill:#fff;}.cls-6{fill:#e4e7e7;}.cls-7{fill:#231f20;}</style></defs><title>Asset 4</title><g id="Layer_2" data-name="Layer 2"><g id="Layer_1-2" data-name="Layer 1"><path class="cls-1" d="M1080,130.73q0-16.89-22.66-16.88h-27.36v34.36h27.36Q1080,148.21,1080,130.73Z"/><path class="cls-1" d="M1082.53,179.08q0-9.27-5.55-13.76t-17.25-4.49h-29.8v36h29.8q11.85,0,17.33-4.34T1082.53,179.08Z"/><path class="cls-1" d="M562.23,114.3H541v82.11h21.28q40,0,40-41.21Q602.22,114.31,562.23,114.3Z"/><path class="cls-1" d="M927.9,146q5.77-4.65,5.78-13.92T928,118.33q-5.7-4.48-17.71-4.48H883.05v36.79h27.22Q922.12,150.64,927.9,146Z"/><path class="cls-1" d="M674.14,295.24q-16.27,0-25.24,11t-9,31.4q0,20.52,9,31.62t25.17,11.1q16.26,0,25.31-11.1t9-31.62q0-20.39-9-31.4T674.14,295.24Z"/><polygon class="cls-1" points="1414.3 352.72 1458.39 352.72 1436.35 301.17 1414.3 352.72"/><path class="cls-1" d="M935.28,301q-5.7-4.71-16.95-4.71H890.81V333h27.52q11.25,0,16.95-4.71t5.7-13.69Q941,305.75,935.28,301Z"/><path class="cls-1" d="M1449.88,114.3h-21.29v82.11h21.29q40,0,40-41.21Q1489.87,114.31,1449.88,114.3Z"/><path class="cls-1" d="M1570.75,313.19q0-16.89-22.65-16.88h-27.37v34.36h27.37Q1570.75,330.67,1570.75,313.19Z"/><path class="cls-1" d="M1567.79,347.78q-5.55-4.48-17.26-4.49h-29.8v36h29.8q11.87,0,17.34-4.34t5.47-13.45Q1573.34,352.26,1567.79,347.78Z"/><path class="cls-2" d="M40,447.62l179.74,50.75,179.75-50.75L439.49,0H0ZM219.92,92.35v56.29h-78.3l16.06,179,62.13,17.67.18,0v-.09l.22-.07V148.64h-.29V92.35h.29V35H400.07L366.28,419.05,220.21,460.37V403.7l-.22.06h0l-.18.05L105.05,371.16,80.11,92.35Z"/><path class="cls-3" d="M285.68,285.41h56.51l-7.61,85.75L220.21,403.7v56.67l146.07-41.32L400.07,35H220.21V92.35H362.59L352.38,207.4H295.87l5.22-58.76H220.21V345.18l61.73-17.56ZM220.21,403.87v-.11l.18.06Z"/><polygon class="cls-4" points="220.21 403.87 220.4 403.82 220.21 403.76 220.21 403.87"/><polygon class="cls-5" points="295.88 207.4 352.38 207.4 362.59 92.35 220.21 92.35 219.92 92.35 219.92 148.64 220.21 148.64 301.09 148.64 295.88 207.4"/><polygon class="cls-5" points="220 403.76 219.99 403.76 219.99 403.76 220.21 403.7 334.58 371.16 342.19 285.41 285.68 285.41 281.94 327.62 220.21 345.18 219.99 345.25 219.99 345.34 220 345.34 220 403.76"/><polygon class="cls-6" points="219.81 403.81 219.99 403.76 220 403.76 220 345.34 219.99 345.34 219.81 345.29 157.68 327.62 141.62 148.64 219.92 148.64 219.92 92.35 80.11 92.35 105.05 371.16 219.81 403.81"/><path class="cls-7" d="M563.14,101.23H525.28V209.49h37.86q26.31,0,40.75-14.22t14.45-40.07q0-25.69-14.45-39.83T563.14,101.23Zm-.91,95.18H541V114.3h21.28q40,0,40,40.9Q602.22,196.42,562.23,196.41Z"/><rect class="cls-7" x="639.78" y="101.23" width="15.66" height="108.26"/><path class="cls-7" d="M752.44,196a27.38,27.38,0,0,0,5-16.42q0-9.12-5-14.9a34,34,0,0,0-13.38-9.12,148.1,148.1,0,0,0-21.89-6.39q-12.93-3-18.78-6.84a12.41,12.41,0,0,1-5.85-11.1,15.81,15.81,0,0,1,6.69-13.45q6.69-5,18.39-5a47.61,47.61,0,0,1,16.88,3,53.1,53.1,0,0,1,15.36,9.2l5.62-11.56a45.54,45.54,0,0,0-16.65-9.88,64.06,64.06,0,0,0-21.36-3.5,52.52,52.52,0,0,0-21.21,4A33,33,0,0,0,682,115.29a28.51,28.51,0,0,0-5,16.65q0,9.44,4.71,15.43A32.42,32.42,0,0,0,694.66,157a111.56,111.56,0,0,0,21.14,6.31q13.53,3,19.77,6.62a11.47,11.47,0,0,1,6.23,10.56,14.74,14.74,0,0,1-6.69,12.93q-6.69,4.56-18.85,4.56A59.27,59.27,0,0,1,697.1,195a53.5,53.5,0,0,1-16.42-9.27l-5.63,11.55a50.06,50.06,0,0,0,18,10,75,75,0,0,0,23,3.34q12.63,0,22-3.88A32.26,32.26,0,0,0,752.44,196Z"/><polygon class="cls-7" points="764 114.3 800.64 114.3 800.64 209.49 816.46 209.49 816.46 114.3 853.1 114.3 853.1 101.23 764 101.23 764 114.3"/><path class="cls-7" d="M883.05,163.26h23.72q7.14,0,11.25,2.21t6.23,8l13.54,36h16.57L941,173.75q-4.26-11.7-13.69-13.38,10.35-3,16-10.49t5.63-18.09q0-14.75-9.51-22.66t-27.29-7.9H867.54V209.49h15.51Zm0-49.41h27.22q12,0,17.71,4.48t5.7,13.76q0,9.28-5.78,13.92t-17.63,4.63H883.05Z"/><rect class="cls-7" x="973.52" y="101.23" width="15.66" height="108.26"/><path class="cls-7" d="M1088.24,201.73q9.65-7.75,9.65-21.74,0-10-5.17-16.88t-14.6-9.43a24.51,24.51,0,0,0,17-24.17q0-13.38-9.35-20.83t-26.07-7.45h-45.31V209.49h46.83Q1078.57,209.49,1088.24,201.73Zm-58.31-87.88h27.36q22.67,0,22.66,16.88,0,17.47-22.66,17.48h-27.36Zm0,83v-36h29.8q11.7,0,17.25,4.49t5.55,13.76q0,9.12-5.47,13.45t-17.33,4.34Z"/><path class="cls-7" d="M1161.9,210.7q21.6,0,32.77-11.25t11.18-33V101.23h-15.51v66.29q0,14.91-7.23,22.66t-21.21,7.75q-14.13,0-21.36-7.68t-7.22-22.73V101.23H1118v65.23q0,21.73,11.18,33T1161.9,210.7Z"/><polygon class="cls-7" points="1219.53 114.3 1256.17 114.3 1256.17 209.49 1271.98 209.49 1271.98 114.3 1308.63 114.3 1308.63 101.23 1219.53 101.23 1219.53 114.3"/><polygon class="cls-7" points="1393.32 196.71 1338.58 196.71 1338.58 160.83 1390.28 160.83 1390.28 148.06 1338.58 148.06 1338.58 114 1393.32 114 1393.32 101.23 1323.07 101.23 1323.07 209.49 1393.32 209.49 1393.32 196.71"/><path class="cls-7" d="M1491.54,115.37q-14.44-14.15-40.75-14.14h-37.86V209.49h37.86q26.3,0,40.75-14.22T1506,155.2Q1506,129.51,1491.54,115.37Zm-41.66,81h-21.29V114.3h21.29q40,0,40,40.9Q1489.87,196.42,1449.88,196.41Z"/><path class="cls-7" d="M573,295.55a44.76,44.76,0,0,1,16,2.81,54.81,54.81,0,0,1,15,9.05l5.47-11.56a43,43,0,0,0-16-10,60.45,60.45,0,0,0-20.6-3.42q-15.68,0-27.3,6.69a44.47,44.47,0,0,0-17.86,19.16q-6.24,12.46-6.24,29.35t6.24,29.49a44.9,44.9,0,0,0,17.86,19.24q11.64,6.77,27.3,6.76a60.45,60.45,0,0,0,20.6-3.42,42.85,42.85,0,0,0,16-10l-5.47-11.55a54.52,54.52,0,0,1-15,9,44.54,44.54,0,0,1-16,2.82q-16.87,0-26.08-11t-9.2-31.39q0-20.22,9.2-31.17T573,295.55Z"/><path class="cls-7" d="M701,289.16q-11.34-6.69-26.84-6.69t-26.76,6.69a44,44,0,0,0-17.49,19.16q-6.07,12.46-6.08,29.5,0,16.88,6.16,29.34a45,45,0,0,0,17.48,19.24q11.32,6.77,26.69,6.76t26.76-6.76a44.37,44.37,0,0,0,17.48-19.24q6.09-12.46,6.09-29.49t-6.09-29.35A44.13,44.13,0,0,0,701,289.16Zm-1.53,80.13q-9,11.1-25.31,11.1T649,369.29q-9-11.1-9-31.62t9-31.4q9-11,25.24-11t25.31,11q9,11,9,31.4T699.45,369.29Z"/><polygon class="cls-7" points="798.21 373.09 758.83 283.69 746.21 283.69 746.21 391.95 760.35 391.95 760.2 318.05 792.74 391.95 803.53 391.95 835.61 317.6 835.61 391.95 849.75 391.95 849.75 283.69 837.13 283.69 798.21 373.09"/><path class="cls-7" d="M946.68,292q-9.49-8.3-26.53-8.29h-45V392h15.66V345.42h29.34q16.73,0,26.38-8.29t9.66-22.58Q956.19,300.27,946.68,292Zm-11.4,36.26q-5.7,4.71-16.95,4.71H890.81V296.31h27.52q11.25,0,16.95,4.71t5.7,13.53Q941,323.54,935.28,328.24Z"/><path class="cls-7" d="M1047,350q0,14.91-7.23,22.66t-21.2,7.75q-14.14,0-21.37-7.68T989.94,350V283.69H974.58v65.23q0,21.74,11.18,33t32.77,11.25q21.59,0,32.76-11.25t11.18-33V283.69H1047Z"/><polygon class="cls-7" points="1076.15 296.76 1112.79 296.76 1112.79 391.95 1128.61 391.95 1128.61 296.76 1165.25 296.76 1165.25 283.69 1076.15 283.69 1076.15 296.76"/><polygon class="cls-7" points="1179.69 391.95 1249.94 391.95 1249.94 379.17 1195.2 379.17 1195.2 343.29 1246.9 343.29 1246.9 330.52 1195.2 330.52 1195.2 296.46 1249.94 296.46 1249.94 283.69 1179.69 283.69 1179.69 391.95"/><polygon class="cls-7" points="1325.81 283.69 1310.15 283.69 1310.15 391.95 1378.42 391.95 1378.42 378.87 1325.81 378.87 1325.81 283.69"/><path class="cls-7" d="M1429.65,283.69,1381.46,392h16L1409,365.19h54.73L1475.27,392h16l-48.35-108.26Zm-15.35,69,22-51.55,22.05,51.55Z"/><path class="cls-7" d="M1568.93,336.15a25.49,25.49,0,0,0,12.54-9.2,25.19,25.19,0,0,0,4.49-15q0-13.38-9.35-20.83t-26.08-7.45h-45.31V392h46.83q17.34,0,27-7.76t9.66-21.74q0-10-5.17-16.88A26.37,26.37,0,0,0,1568.93,336.15Zm-48.2-39.84h27.37q22.65,0,22.65,16.88,0,17.47-22.65,17.48h-27.37ZM1567.87,375q-5.47,4.33-17.34,4.34h-29.8v-36h29.8q11.71,0,17.26,4.49t5.55,13.76Q1573.34,370.66,1567.87,375Z"/><path class="cls-7" d="M1681.14,347.09a34.11,34.11,0,0,0-13.38-9.12,148.1,148.1,0,0,0-21.89-6.39q-12.93-3-18.78-6.84a12.41,12.41,0,0,1-5.86-11.1,15.83,15.83,0,0,1,6.69-13.45q6.69-4.95,18.4-4.95a47.61,47.61,0,0,1,16.88,3,53.1,53.1,0,0,1,15.36,9.2l5.62-11.56a45.68,45.68,0,0,0-16.65-9.88,64.06,64.06,0,0,0-21.36-3.5,52.52,52.52,0,0,0-21.21,4,33,33,0,0,0-14.22,11.25,28.51,28.51,0,0,0-5,16.65q0,9.44,4.71,15.44a32.5,32.5,0,0,0,12.92,9.57,111.56,111.56,0,0,0,21.14,6.31q13.53,3,19.76,6.62a11.47,11.47,0,0,1,6.24,10.57,14.73,14.73,0,0,1-6.69,12.92q-6.69,4.56-18.86,4.56a59.25,59.25,0,0,1-19.15-2.89,53.39,53.39,0,0,1-16.42-9.27l-5.63,11.55a50.06,50.06,0,0,0,18,10,75,75,0,0,0,23,3.34q12.62,0,22-3.87a32.35,32.35,0,0,0,14.37-10.88,27.38,27.38,0,0,0,5-16.42Q1686.16,352.87,1681.14,347.09Z"/></g></g></svg>